<svg width="1080" height="1080" viewBox="0 0 1080 1080" fill="none" xmlns="http://www.w3.org/2000/svg">
<rect width="1080" height="1080" rx="540" fill="#34D399"/>
<path d="M802.863 247.109L888.894 333.391L844.145 410.82L678.425 540.046L845.251 669.18L890 746.608L803.968 832.891L719.801 844.772L719.69 844.836L667.306 911.712L549.491 943L504.742 865.572L474.171 656.779L279.282 735.536H189.784L158 617.966L189.784 539.209V539.081L158 460.323L189.784 342.753H279.282L474.467 422.412L503.636 214.428L548.385 137L666.201 168.288L718.584 235.163L718.695 235.228L802.863 247.109Z" fill="white"/>
<path d="M428.477 732.84L290.659 787.505L444.691 870.516L428.477 732.84Z" fill="white"/>
</svg>
