<svg width="181" height="200" viewBox="0 0 181 200" fill="none" xmlns="http://www.w3.org/2000/svg">
<path d="M159.362 28.0461L180.586 49.3541L169.546 68.4754L128.663 100.389L169.819 132.279L180.859 151.4L159.635 172.708L138.87 175.642L138.843 175.658L125.92 192.174L96.8544 199.9L85.8147 180.779L78.2727 129.216L30.1933 148.666H8.11389L0.272766 119.631L8.11386 100.182V100.15L0.272736 80.7007L8.11386 51.666H30.1933L78.3459 71.3382L85.5419 19.9755L96.5816 0.854126L125.647 8.58083L138.57 25.0961L138.597 25.112L159.362 28.0461Z" fill="white"/>
<path d="M67 148L33 161.5L71 182L67 148Z" fill="white"/>
</svg>
